<svg width="87" height="133" viewBox="0 0 87 133" fill="none" xmlns="http://www.w3.org/2000/svg">
<path d="M47.6269 97.278C46.2739 97.4116 44.8758 97.4561 43.4776 97.4561C43.0717 97.4561 42.6658 97.4561 42.2599 97.4561L39.1479 88.9933C40.5912 89.1715 42.0344 89.2605 43.5227 89.2605C46.0484 89.2605 48.529 88.9933 50.9193 88.5033L47.6269 97.278Z" fill="#ECE8E1"/>
<path d="M43.4325 19.7763C40.3656 19.7763 37.389 20.1772 34.5927 20.8898L31.7513 13.1397C35.4947 12.1152 39.4185 11.5362 43.4776 11.5362C48.4838 11.5362 53.2646 12.3825 57.7296 13.8969L54.8882 21.6025C51.2801 20.3999 47.4465 19.7763 43.4325 19.7763Z" fill="#ECE8E1"/>
<path d="M20.2055 18.2173L23.137 26.1457C14.1619 32.426 8.29878 42.8041 8.29878 54.4739C8.29878 66.3218 14.3423 76.789 23.5429 83.0693L27.7824 94.5609C11.5461 88.3252 0.000174678 72.7358 0.000174678 54.4739C-0.0449264 39.2408 8.02817 25.8339 20.2055 18.2173Z" fill="#ECE8E1"/>
<path d="M78.6114 54.4739C78.6114 43.784 73.6954 34.1631 65.938 27.7937L68.9146 19.6872C79.8291 27.5265 86.9551 40.2207 86.9551 54.4739C86.9551 71.3995 76.9877 86.0981 62.5103 93.0911L67.3361 79.9514C74.2817 73.6266 78.6114 64.5402 78.6114 54.4739Z" fill="#ECE8E1"/>
<path d="M63.728 26.1011L46.2739 73.5375L44.8758 77.0563L43.4776 73.493L25.4372 24.6758L22.5507 16.8366L16.3719 0H23.994L29.1355 13.9414L32.0219 21.647L44.8758 56.5673L57.3688 22.6269L60.2552 14.8768L65.7125 0H73.3345L66.6596 18.1728L63.728 26.1011Z" fill="#ECE8E1"/>
<path d="M16.3719 55.8992H23.994L36.0359 88.4588L39.2832 97.278L44.8758 112.467L50.6487 96.8771L54.0313 87.6125L65.7125 55.8992H73.3345L63.3221 83.1584L59.0826 94.561L46.2739 129.437L44.8758 133L43.4776 129.437L31.0297 95.6745L27.1961 85.2964L16.3719 55.8992Z" fill="#ECE8E1"/>
</svg>
