<svg width="47" height="71" viewBox="0 0 47 71" fill="none" xmlns="http://www.w3.org/2000/svg">
<path d="M25.4249 51.9303C24.7026 52.0017 23.9562 52.0255 23.2099 52.0255C22.9932 52.0255 22.7765 52.0255 22.5598 52.0255L20.8985 47.5077C21.669 47.6028 22.4394 47.6504 23.2339 47.6504C24.5822 47.6504 25.9064 47.5077 27.1825 47.2462L25.4249 51.9303Z" fill="#0F1923"/>
<path d="M23.1859 10.5573C21.5487 10.5573 19.9596 10.7713 18.4669 11.1517L16.95 7.01441C18.9484 6.46753 21.043 6.15842 23.2099 6.15842C25.8824 6.15842 28.4345 6.61019 30.8181 7.41863L29.3013 11.5322C27.3752 10.8902 25.3287 10.5573 23.1859 10.5573Z" fill="#0F1923"/>
<path d="M10.7864 9.72504L12.3514 13.9575C7.56019 17.3101 4.43024 22.8503 4.43024 29.08C4.43024 35.4049 7.65649 40.9926 12.5681 44.3453L14.8313 50.4799C6.16375 47.151 0.000160178 38.8289 0.000160178 29.08C-0.0239163 20.9481 4.28578 13.791 10.7864 9.72504Z" fill="#0F1923"/>
<path d="M41.9655 29.08C41.9655 23.3734 39.3412 18.2374 35.2 14.8372L36.7891 10.5097C42.6156 14.6946 46.4197 21.4712 46.4197 29.08C46.4197 38.1155 41.0988 45.9621 33.3702 49.6952L35.9464 42.6808C39.6542 39.3044 41.9655 34.4538 41.9655 29.08Z" fill="#0F1923"/>
<path d="M34.0203 13.9337L24.7026 39.2569L23.9563 41.1353L23.2099 39.2331L13.5793 13.1728L12.0384 8.98794L8.73991 0H12.8088L15.5536 7.4424L17.0945 11.5559L23.9563 30.1976L30.6255 12.079L32.1664 7.94173L35.0796 0H39.1486L35.5852 9.70127L34.0203 13.9337Z" fill="#0F1923"/>
<path d="M8.73991 29.8409H12.8088L19.2373 47.2224L20.9708 51.9304L23.9563 60.0385L27.0381 51.7164L28.8438 46.7706L35.0796 29.8409H39.1486L33.8036 44.3928L31.5404 50.4799L24.7026 69.0978L23.9563 71L23.2099 69.0978L16.5648 51.0744L14.5183 45.5342L8.73991 29.8409Z" fill="#0F1923"/>
</svg>
