<svg width="88" height="140" viewBox="0 0 88 140" fill="none" xmlns="http://www.w3.org/2000/svg">
<path d="M43.5226 100.232C67.5163 100.232 87.0451 80.665 87.0451 56.6688C87.0451 32.6727 67.5163 13.06 43.5226 13.06C19.5288 13.06 0 32.6275 0 56.6688C0 80.7101 19.5739 100.232 43.5226 100.232ZM43.5226 21.4203C62.916 21.4203 78.7014 37.2369 78.7014 56.6688C78.7014 76.1007 62.916 91.9174 43.5226 91.9174C24.1291 91.9174 8.3437 76.1007 8.3437 56.6688C8.3437 37.2369 24.1291 21.4203 43.5226 21.4203Z" fill="#B5A5D1"/>
<path d="M25.0762 0L44.9658 54.7708L64.8554 0H75.3188L47.6267 76.4171L44.9207 83.286L42.3048 76.4171L14.5225 0H25.0762Z" fill="#7D5677"/>
<path d="M25.0762 56.714L44.9658 111.53L64.8554 56.714H75.3188L47.6267 133.131L44.9207 140L42.3048 133.131L14.5225 56.714H25.0762Z" fill="#7D5677"/>
</svg>
